<svg xmlns="http://www.w3.org/2000/svg" width="1440" height="194" viewBox="0 0 1440 194" fill="none"><mask id="mask0_36_429" style="mask-type:alpha" maskUnits="userSpaceOnUse" x="0" y="0" width="1440" height="194"><rect width="1440" height="194" fill="#D9D9D9"></rect></mask><g mask="url(#mask0_36_429)"><path opacity="0.7" d="M237.354 501.398C237.354 501.398 56.1472 444.163 185.762 192.369C315.376 -59.4248 480.759 193.424 715.107 151.483C949.456 109.541 1202.82 -53.7721 1394.75 41.4802C1593.61 140.17 1478.85 448.317 1478.85 448.317L1484.46 478.486C1336.23 549.121 1234.54 578.788 1066.31 587.499C951.643 593.437 816.503 581.949 699.458 521.214C591.362 465.121 286.739 469.234 237.354 501.398Z" fill="#FFE800"></path><path d="M0 514V65.8777C180 -8.51191 411.946 101.585 641.477 165.262C834.112 218.704 980.336 172.403 1177.25 125.984C1334.78 88.8491 1418.05 131.935 1440 158.121V514H0Z" fill="url(#paint0_linear_36_429)"></path></g><defs><linearGradient id="paint0_linear_36_429" x1="720" y1="41" x2="720" y2="514" gradientUnits="userSpaceOnUse"><stop stop-color="#0047BA"></stop><stop offset="1" stop-color="#0061FF"></stop></linearGradient></defs></svg>